<svg xmlns="http://www.w3.org/2000/svg" viewBox="0 0 131.16 131.16"><defs><style>.cls-1{fill:#00c3d1;}.cls-2{fill:#fff;}</style></defs><g id="Capa_2" data-name="Capa 2"><g id="Capa_1-2" data-name="Capa 1"><rect class="cls-1" width="131.16" height="131.16"/><path class="cls-2" d="M56.51,40a1.8,1.8,0,0,0-1.46.9l-2.86,5.69H40.85a6.62,6.62,0,0,0-6.59,6.6V84.54a6.62,6.62,0,0,0,6.59,6.59H90.31a6.62,6.62,0,0,0,6.59-6.59V53.22a6.62,6.62,0,0,0-6.59-6.6H79l-2.86-5.69a1.67,1.67,0,0,0-1.46-.9Zm1,3.3H73.64L76.47,49a1.7,1.7,0,0,0,1.47.93H90.31a3.25,3.25,0,0,1,3.29,3.3V84.54a3.25,3.25,0,0,1-3.29,3.29H40.85a3.25,3.25,0,0,1-3.29-3.29V53.22a3.25,3.25,0,0,1,3.29-3.3H53.22A1.65,1.65,0,0,0,54.68,49Zm8.06,11.54a14,14,0,1,0,14,14A14,14,0,0,0,65.58,54.87Zm0,3.29A10.72,10.72,0,1,1,54.87,68.88,10.69,10.69,0,0,1,65.58,58.16Z"/></g></g></svg>